{"title":"What The Jatt (2015) - Punjabi - 1CD - iTunes HDRip - x264 -MP3 ","uid":12052053,"size":731342029,"categoryP":"video","categoryS":"movies","magnet":"?xt=urn:btih:1d4621b5e8a03236e0af4ff964b8f631a2e5ed8d&amp;dn=What+The+Jatt+%282015%29+-+Punjabi+-+1CD+-+iTunes+HDRip+-+x264+-MP3+&amp;tr=udp%3A%2F%2Ftracker.openbittorrent.com%3A80&amp;tr=udp%3A%2F%2Fopen.demonii.com%3A1337&amp;tr=udp%3A%2F%2Ftracker.coppersurfer.tk%3A6969&amp;tr=udp%3A%2F%2Fexodus.desync.com%3A6969","seeders":2,"leechers":4,"uploader":"SS132203","files":2,"time":1435019804,"description":"What The Jatt (2015) - Punjabi - 1CD - iTunes HDRip - x264 -MP3 -={SPARROW}=-\n &lt;a href=&quot;\nhttp://imgsparrow.co/image/fl&quot; rel=&quot;nofollow&quot; target=&quot;_NEW&quot;&gt;\nhttp://imgsparrow.co/image/fl&lt;/a&gt;\n &lt;a href=&quot;\nhttp://imgsparrow.co/image/QS&quot; rel=&quot;nofollow&quot; target=&quot;_NEW&quot;&gt;\nhttp://imgsparrow.co/image/QS&lt;/a&gt;\n\nInfo : - \n\nSOURCE: 1080p iTunes HD Team Telly (Thanks a Ton)\n\nFormat                      : Matroska\nFormat version              : Version 2\nFile size                   : 697 MiB\nDuration                    : 2h 20mn\nOverall bit rate mode       : Variable\nOverall bit rate            : 696 Kbps\nEncoded date                : UTC 2015-06-22 19:05:26\nWriting application         : mkvmerge v7.7.0 ('Six Voices') 32bit built on Feb 28 2015 23:23:00\nWriting library             : libebml v1.3.1 + libmatroska v1.4.2\nDURATION                    : 02:20:10.056000000\n\nVideo\nID                          : 1\nFormat                      : AVC\nFormat/Info                 : Advanced Video Codec\nFormat profile              : &lt;a class=&quot;__cf_email__&quot; href=&quot;/cdn-cgi/l/email-protection&quot; data-cfemail=&quot;c28aaba5aa828ef6ecf3&quot;&gt;[email&amp;#160;protected]&lt;/a&gt;&lt;script data-cfhash='f9e31' type=&quot;text/javascript&quot;&gt;\n/* &lt;![CDATA[ */!function(){try{var t=&quot;currentScript&quot;in document?document.currentScript:function(){for(var t=document.getElementsByTagName(&quot;script&quot;),e=t.length;e--;)if(t[e].getAttribute(&quot;data-cfhash&quot;))return t[e]}();if(t&amp;&amp;t.previousSibling){var e,r,n,i,c=t.previousSibling,a=c.getAttribute(&quot;data-cfemail&quot;);if(a){for(e=&quot;&quot;,r=parseInt(a.substr(0,2),16),n=2;a.length-n;n+=2)i=parseInt(a.substr(n,2),16)^r,e+=String.fromCharCode(i);e=document.createTextNode(e),c.parentNode.replaceChild(e,c)}t.parentNode.removeChild(t);}}catch(u){}}()/* ]]&gt; */&lt;/script&gt;\nFormat settings, CABAC      : Yes\nFormat settings, ReFrames   : 4 frames\nCodec ID                    : V_MPEG4/ISO/AVC\nDuration                    : 2h 20mn\nBit rate                    : 574 Kbps\nWidth                       : 640 pixels\nHeight                      : 272 pixels\nDisplay aspect ratio        : 2.35:1\nFrame rate mode             : Constant\nFrame rate                  : 24.000 fps\nColor space                 : YUV\nChroma subsampling          : 4:2:0\nBit depth                   : 8 bits\nScan type                   : Progressive\nBits/(Pixel*Frame)          : 0.137\nStream size                 : 564 MiB (81%)\nWriting library             : x264 core 146 r2538 121396c\nDefault                     : Yes\nForced                      : No\n\nAudio\nID                          : 2\nFormat                      : MPEG Audio\nFormat version              : Version 1\nFormat profile              : Layer 3\nMode                        : Joint stereo\nMode extension              : MS Stereo\nCodec ID                    : A_MPEG/L3\nCodec ID/Hint               : MP3\nDuration                    : 2h 20mn\nBit rate mode               : Variable\nBit rate                    : 120 Kbps\nNominal bit rate            : 128 Kbps\nChannel(s)                  : 2 channels\nSampling rate               : 48.0 KHz\nCompression mode            : Lossy\nStream size                 : 120 MiB (17%)\nWriting library             : LAME3.99r\nEncoding settings           : -m j -V 4 -q 2 -lowpass 17 --abr 128\nLanguage                    : Panjabi\nDefault                     : Yes\nForced                      : No\n\nMenu\n00:00:00.000                : en:1\n00:08:04.083                : en:2\n00:15:47.083                : en:3\n00:23:35.083                : en:4\n00:30:00.083                : en:5\n00:38:10.166                : en:6\n00:44:07.083                : en:7\n00:52:20.166                : en:8\n00:58:35.166                : en:9\n01:05:41.166                : en:10\n01:13:26.166                : en:11\n01:19:57.083                : en:12\n01:28:39.083                : en:13\n01:34:35.166                : en:14\n01:41:44.166                : en:15\n01:48:12.166                : en:16\n01:56:31.166                : en:17\n02:04:15.083                : en:18\n02:10:43.166                : en:19\n02:18:13.166                : en:20\n\nScreens : - \n &lt;a href=&quot;\nhttp://imgsparrow.co/image/fC&quot; rel=&quot;nofollow&quot; target=&quot;_NEW&quot;&gt;\nhttp://imgsparrow.co/image/fC&lt;/a&gt; &lt;a href=&quot;\nhttp://imgsparrow.co/image/f1&quot; rel=&quot;nofollow&quot; target=&quot;_NEW&quot;&gt;\nhttp://imgsparrow.co/image/f1&lt;/a&gt; &lt;a href=&quot;\nhttp://imgsparrow.co/image/I6&quot; rel=&quot;nofollow&quot; target=&quot;_NEW&quot;&gt;\nhttp://imgsparrow.co/image/I6&lt;/a&gt; &lt;a href=&quot;\nhttp://imgsparrow.co/image/I8&quot; rel=&quot;nofollow&quot; target=&quot;_NEW&quot;&gt;\nhttp://imgsparrow.co/image/I8&lt;/a&gt; &lt;a href=&quot;\nhttp://imgsparrow.co/image/I9&quot; rel=&quot;nofollow&quot; target=&quot;_NEW&quot;&gt;\nhttp://imgsparrow.co/image/I9&lt;/a&gt; &lt;a href=&quot;\nhttp://imgsparrow.co/image/IL&quot; rel=&quot;nofollow&quot; target=&quot;_NEW&quot;&gt;\nhttp://imgsparrow.co/image/IL&lt;/a&gt; &lt;a href=&quot;\nhttp://imgsparrow.co/image/IN&quot; rel=&quot;nofollow&quot; target=&quot;_NEW&quot;&gt;\nhttp://imgsparrow.co/image/IN&lt;/a&gt; &lt;a href=&quot;\nhttp://imgsparrow.co/image/It&quot; rel=&quot;nofollow&quot; target=&quot;_NEW&quot;&gt;\nhttp://imgsparrow.co/image/It&lt;/a&gt; &lt;a href=&quot;\nhttp://imgsparrow.co/image/IE&quot; rel=&quot;nofollow&quot; target=&quot;_NEW&quot;&gt;\nhttp://imgsparrow.co/image/IE&lt;/a&gt; &lt;a href=&quot;\nhttp://imgsparrow.co/image/IJ&quot; rel=&quot;nofollow&quot; target=&quot;_NEW&quot;&gt;\nhttp://imgsparrow.co/image/IJ&lt;/a&gt;\n &lt;a href=&quot;\nhttp://imgsparrow.co/image/N2&quot; rel=&quot;nofollow&quot; target=&quot;_NEW&quot;&gt;\nhttp://imgsparrow.co/image/N2&lt;/a&gt;","torrent":{"xt":"urn:btih:1d4621b5e8a03236e0af4ff964b8f631a2e5ed8d","amp;dn":"What+The+Jatt+%282015%29+-+Punjabi+-+1CD+-+iTunes+HDRip+-+x264+-MP3+","amp;tr":["udp%3A%2F%2Ftracker.openbittorrent.com%3A80","udp%3A%2F%2Fopen.demonii.com%3A1337","udp%3A%2F%2Ftracker.coppersurfer.tk%3A6969","udp%3A%2F%2Fexodus.desync.com%3A6969"],"infoHash":"1d4621b5e8a03236e0af4ff964b8f631a2e5ed8d","infoHashBuffer":{"type":"Buffer","data":[29,70,33,181,232,160,50,54,224,175,79,249,100,184,246,49,162,229,237,141]},"announce":[],"urlList":[]}}